<svg width="1160" height="471" viewBox="0 0 1160 471" fill="none" xmlns="http://www.w3.org/2000/svg">
<g clip-path="url(#clip0_22_22547)">
<rect y="0.0297852" width="1160" height="470" rx="6" fill="white"/>
<rect y="0.0297852" width="1224" height="1224" fill="black"/>
<path d="M611.5 242.086C470.18 341.629 377.858 506.049 377.858 692.03C377.858 878.01 470.18 1042.43 611.5 1141.97M611.5 242.086C700.994 179.049 810.138 142.03 927.929 142.03C1231.72 142.03 1478 388.273 1478 692.03C1478 995.786 1231.72 1242.03 927.929 1242.03C810.138 1242.03 700.994 1205.01 611.5 1141.97M611.5 242.086C522.006 179.049 412.862 142.03 295.071 142.03C-8.72475 142.03 -255 388.273 -255 692.03C-255 995.786 -8.72475 1242.03 295.071 1242.03C412.862 1242.03 522.006 1205.01 611.5 1141.97M611.5 242.086C752.82 341.629 845.142 506.049 845.142 692.03C845.142 878.01 752.82 1042.43 611.5 1141.97" stroke="#101010" stroke-width="141"/>
<path d="M512.599 116.277C512.599 124.333 517.713 128.854 523.64 128.854C525.871 128.921 528.058 128.228 529.854 126.887C531.65 125.547 532.951 123.635 533.549 121.458L541.832 124.496C539.966 130.744 534.039 137.571 523.64 137.571C512.036 137.571 503.182 128.447 503.182 116.277C503.182 103.934 512.036 95.0552 523.399 95.0552C534.04 95.0552 539.877 101.8 541.502 108.211L533.058 111.34C532.165 107.804 529.487 103.853 523.48 103.853C517.714 103.853 512.599 108.211 512.599 116.277Z" fill="white"/>
<path d="M549.523 75.73C550.374 75.73 551.217 75.8921 552.003 76.2071C552.789 76.522 553.503 76.9837 554.105 77.5657C554.707 78.1476 555.184 78.8386 555.509 79.599C555.835 80.3594 556.003 81.1744 556.003 81.9974C555.995 83.2267 555.612 84.4264 554.901 85.4456C554.191 86.4647 553.184 87.2578 552.009 87.7249C550.833 88.192 549.541 88.3123 548.295 88.0707C547.049 87.8291 545.905 87.2365 545.006 86.3672C544.107 85.4979 543.495 84.391 543.245 83.1856C542.995 81.9803 543.119 80.7304 543.602 79.5933C544.085 78.4562 544.905 77.4827 545.959 76.7952C547.012 76.1078 548.252 75.7372 549.523 75.73ZM544.666 136.282V96.1016H554.474V136.282H544.666Z" fill="white"/>
<path d="M584.347 106.15C583.325 105.994 582.293 105.913 581.26 105.91C573.932 105.91 570.595 110.123 570.595 117.489V136.283H561.156V96.8247H570.354V103.149C572.224 98.8555 576.616 96.3438 581.832 96.3438C582.676 96.3457 583.518 96.4262 584.347 96.5843V106.15Z" fill="white"/>
<path d="M592.792 116.277C592.792 124.333 598.078 128.854 604.204 128.854C606.508 128.917 608.768 128.224 610.624 126.884C612.479 125.543 613.824 123.633 614.445 121.458L622.997 124.496C621.069 130.744 614.943 137.571 604.204 137.571C592.211 137.571 583.059 128.447 583.059 116.277C583.059 103.934 592.201 95.0552 603.955 95.0552C614.943 95.0552 620.986 101.8 622.665 108.211L613.938 111.34C613.015 107.804 610.247 103.853 604.038 103.853C598.06 103.853 592.792 108.211 592.792 116.277Z" fill="white"/>
<path d="M625.574 136.283V77.0186H634.593V136.283H625.574Z" fill="white"/>
<path d="M677.875 124.912C675.694 131.901 669.216 137.571 659.392 137.571C648.302 137.571 638.459 129.677 638.459 116.105C638.459 103.446 648.043 95.0552 658.384 95.0552C670.99 95.0552 678.393 103.193 678.393 115.852C678.42 116.874 678.333 117.895 678.134 118.899H648.246C648.319 121.727 649.529 124.412 651.615 126.371C653.7 128.33 656.492 129.404 659.382 129.361C665.27 129.361 668.292 126.313 669.641 122.371L677.875 124.912ZM668.578 111.919C668.412 107.226 665.223 103.03 658.495 103.03C655.983 102.979 653.546 103.872 651.686 105.526C649.826 107.179 648.684 109.467 648.496 111.919H668.578Z" fill="white"/>
<path d="M494.085 145.882C494.081 146.023 494.053 146.161 494.003 146.292L493.564 146.893C488.92 153.174 482.859 158.285 475.868 161.812C468.878 165.34 461.152 167.186 453.314 167.202C446.538 167.225 439.831 165.859 433.609 163.19C440.8 157.935 446.647 151.07 450.677 143.152C454.707 135.233 456.807 126.482 456.807 117.606C456.807 108.73 454.707 99.9792 450.677 92.0603C446.647 84.1414 440.8 77.277 433.609 72.0222C439.831 69.3619 446.533 67.9933 453.304 68.0003C461.019 67.9734 468.634 69.7397 475.541 73.1585C482.448 76.5772 488.457 81.5538 493.088 87.6915L494.103 89.1565H494.158C494.163 89.211 494.163 89.2658 494.158 89.3203C494.159 89.4915 494.123 89.6609 494.054 89.8176C493.984 89.9743 493.883 90.1148 493.756 90.2302C493.146 90.3758 492.551 90.5396 491.972 90.7216C485.16 92.8356 479.405 97.4356 475.863 103.597C472.16 110.103 471.174 117.796 473.119 125.017C474.376 129.744 476.865 134.057 480.335 137.521C483.804 140.985 488.131 143.477 492.878 144.745L493.463 144.9C493.649 144.989 493.806 145.128 493.916 145.302C494.026 145.476 494.085 145.677 494.085 145.882Z" fill="#70AE6E"/>
<path d="M447.782 117.61C447.787 125.311 445.836 132.892 442.105 139.667C438.375 146.443 432.982 152.198 426.416 156.414C425.876 156.76 425.239 156.927 424.596 156.891C423.953 156.855 423.338 156.618 422.842 156.215C416.954 151.574 412.203 145.695 408.938 139.012C405.673 132.329 403.979 125.012 403.979 117.601C403.979 110.19 405.673 102.873 408.938 96.19C412.203 89.5071 416.954 83.6285 422.842 78.9876C423.394 78.5518 424.079 78.3116 424.786 78.3062C425.369 78.3045 425.939 78.4721 426.425 78.7877C432.993 83.0065 438.385 88.7656 442.114 95.5442C445.843 102.323 447.791 109.907 447.782 117.61Z" fill="#004FFF"/>
<path d="M555.185 266.505L549.336 260.395C545.566 264.62 541.537 267.285 536.402 267.285C527.693 267.285 523.078 261.435 523.078 255.521C523.078 249.541 526.328 246.292 531.203 242.652L531.853 242.132L531.008 241.222C528.863 238.947 525.483 235.438 525.483 230.953C525.483 223.479 531.658 219.449 537.377 219.449C544.331 219.449 549.596 223.804 549.596 230.693C549.596 235.243 546.346 238.493 543.097 240.897L540.757 242.652L549.336 251.556L559.605 240.117V248.502L553.366 255.716L563.83 266.505H555.185ZM536.467 261.435C539.977 261.435 542.512 259.161 545.046 256.366L545.241 256.106L535.882 246.292L533.542 248.047C531.333 249.736 529.643 251.816 529.643 255.001C529.643 258.121 532.243 261.435 536.467 261.435ZM531.788 230.563C531.788 233.163 533.802 235.438 535.297 236.998L536.727 238.558L539.847 236.218C542.577 234.203 543.291 232.448 543.291 230.498C543.291 227.444 540.822 224.909 537.442 224.909C534.777 224.909 531.788 226.924 531.788 230.563Z" fill="white"/>
<g clip-path="url(#clip1_22_22547)">
<path d="M792.375 360.621C791.566 364.247 791.176 368.025 789.869 371.464C785.91 381.902 775.949 387.023 765.186 383.737C762.044 382.776 759.357 380.883 757.457 378.015C757.247 378.073 757.045 378.131 756.836 378.196V401.817H747.033V337.788H756.51C756.641 339.803 756.756 341.631 756.886 343.733C757.442 343.379 757.832 343.256 758.013 342.996C763.676 334.884 777.242 334.494 784.567 341.356C788.453 344.997 790.555 349.511 791.53 354.662C791.761 355.875 792.086 357.067 792.375 358.266V360.621ZM755.723 360.607C755.911 360.643 756.092 360.686 756.279 360.722C756.279 361.64 756.164 362.572 756.301 363.467C757.377 370.741 760.599 377.849 770.777 376.889C774.461 376.542 777.3 374.945 779.084 371.76C782.638 365.418 782.717 358.707 780.384 352.018C778.564 346.817 774.808 344.412 769.484 344.347C763.944 344.282 759.942 346.6 758.042 351.556C756.937 354.438 756.482 357.58 755.73 360.6L755.723 360.607Z" fill="#E7EBEC"/>
<path d="M569.256 317.808C569.235 325.66 569.206 333.512 569.199 341.356C569.191 351.498 569.199 361.64 569.199 371.782C569.199 372.75 569.285 373.718 569.35 374.982C570.405 375.09 571.344 375.278 572.276 375.278C580.453 375.3 588.637 375.278 596.814 375.3C597.696 375.3 598.577 375.444 599.624 375.538V383.137C597.443 384.033 560.928 383.91 559.266 383.007C559.223 382.285 559.129 381.454 559.129 380.624C559.122 360.47 559.129 340.316 559.115 320.162C559.115 319.382 559.064 318.595 559.035 317.815C562.437 317.815 565.847 317.815 569.249 317.815L569.256 317.808Z" fill="#E7EBEC"/>
<path d="M675.737 366.292C677.723 364.175 679.515 362.254 681.48 360.159C683.018 361.618 684.254 362.759 685.453 363.937C687.829 366.277 690.155 368.668 692.546 370.994C700.788 379.041 713.805 379.034 721.643 370.886C726.865 365.461 728.628 358.83 726.75 351.678C724.64 343.617 719.201 338.351 710.908 336.834C704.14 335.599 697.892 337.188 692.835 342.216C681.241 353.737 669.64 365.259 658.068 376.802C647.731 387.117 632.107 388.851 620.159 380.479C608.717 372.461 604.404 357.616 610.501 344.542C615.738 333.309 626.79 327.097 639.157 327.87C647.63 328.397 654.102 332.478 659.78 338.329C662.547 341.183 665.371 343.978 668.485 347.12C666.419 349.23 664.54 351.151 662.489 353.246C661.167 351.996 660.019 350.956 658.913 349.88C656.017 347.041 653.301 344 650.223 341.37C638.904 331.727 621.582 336.762 617.429 351.014C613.499 364.479 623.576 376.665 636.087 376.917C642.451 377.048 647.659 374.844 652.102 370.395C663.377 359.097 674.69 347.835 686.016 336.581C696.223 326.447 710.807 324.583 722.856 332.428C732.962 339.008 737.166 348.659 735.851 360.744C734.71 371.298 725.847 381.764 715.604 384.466C704.191 387.478 694.265 384.921 685.821 376.672C682.968 373.884 680.151 371.059 677.333 368.228C676.792 367.686 676.351 367.043 675.737 366.284V366.292Z" fill="#E7EBEC"/>
<path d="M290.506 319.447C290.969 319.39 291.351 319.296 291.734 319.296C300.634 319.339 309.547 319.115 318.432 319.541C323.893 319.809 329.087 321.383 332.554 326.368C338.752 335.267 334.743 348.089 324.551 351.628C324.023 351.809 323.547 352.134 322.911 352.459C323.272 352.936 323.431 353.333 323.727 353.506C327.541 355.76 329.6 359.386 331.233 363.273C333.92 369.666 336.491 376.102 339.099 382.523C339.287 382.986 339.395 383.484 339.648 384.315H329.167C328.35 382.292 327.484 380.197 326.66 378.081C324.746 373.147 322.897 368.185 320.946 363.265C318.815 357.906 316.287 356.237 310.479 356.215C307.214 356.201 303.949 356.215 300.374 356.215C300.193 357.27 299.904 358.187 299.897 359.105C299.861 366.567 299.882 374.029 299.861 381.49C299.861 382.379 299.709 383.26 299.608 384.373H290.817C289.936 382.704 289.676 323.045 290.506 319.447ZM300.164 347.33C305.907 347.33 311.454 347.937 316.8 347.171C322.745 346.319 325.172 342.05 324.486 335.946C323.85 330.29 322.015 328.296 316.338 327.906C311.389 327.567 306.412 327.646 301.45 327.574C301.031 327.574 300.605 327.812 300.157 327.95V347.338L300.164 347.33Z" fill="#E7EBEC"/>
<path d="M476.519 344.015C476.866 342.975 477.104 342.252 477.465 341.161C480.058 340.475 482.84 339.738 485.512 339.031C486.632 340.873 486.726 382.249 485.707 384.394H476.866C476.757 382.379 476.656 380.53 476.533 378.276C475.912 378.811 475.486 379.056 475.219 379.417C472.358 383.311 468.457 385.362 463.704 385.63C452.985 386.222 444.967 381.346 441.521 370.951C438.285 361.171 439.737 351.852 446.78 343.993C453.404 336.603 467.547 334.386 475.197 342.989C475.486 343.314 475.891 343.531 476.526 344.008L476.519 344.015ZM449.452 361.091C449.842 363.583 449.987 365.75 450.543 367.816C452.616 375.509 457.897 378.825 466.529 377.763C470.87 377.229 473.89 374.737 475.544 370.771C477.841 365.259 478.144 359.582 476.057 353.925C473.918 348.111 470.032 345.315 464.311 345.257C457.355 345.185 453.274 347.648 451.034 353.738C450.146 356.143 449.929 358.801 449.467 361.091H449.452Z" fill="#E7EBEC"/>
<path d="M391.203 380.312C388.552 381.62 386.276 383.093 383.791 383.91C375.882 386.517 367.914 386.763 360.337 382.862C352.846 379.005 349.234 372.446 348.562 364.175C348.143 359.046 348.96 354.127 351.307 349.518C357.202 337.953 372.978 333.663 383.712 340.951C388.631 344.288 390.834 349.547 391.629 355.319C391.961 357.739 391.925 360.202 392.091 363.221C386.226 363.221 380.837 363.221 375.448 363.221C370.059 363.221 364.62 363.221 359.094 363.221C358.336 365.771 359.174 367.888 359.983 369.874C362.583 376.224 368.738 378.405 375.737 377.95C379.775 377.69 383.539 376.368 386.955 374.143C387.266 373.941 387.656 373.854 388.479 373.522C389.354 375.704 390.191 377.806 391.203 380.312ZM383.156 356.46C383.633 350.038 378.764 345.155 372.183 345.134C365.097 345.112 358.935 350.421 359.333 356.46H383.149H383.156Z" fill="#E7EBEC"/>
<path d="M408.12 345.105H399.199V338.914C402.168 338.77 405.166 338.633 408.38 338.474C408.38 335.505 408.496 332.832 408.344 330.181C408.221 328.021 409.038 326.916 411.154 326.468C413.17 326.042 415.134 325.37 417.439 324.713C418.522 329.379 417.453 333.836 418.154 338.647H430.268V345.004H418.204C418.074 346.174 417.923 346.933 417.923 347.684C417.901 354.683 417.901 361.683 417.923 368.675C417.923 369.781 418.074 370.893 418.24 371.984C418.688 374.895 419.952 376.296 422.835 376.787C425.269 377.199 427.739 377.394 430.528 377.726V384.004C430.289 384.199 430.195 384.343 430.087 384.35C424.987 384.798 419.895 385.044 415.055 382.906C409.796 380.58 408.453 375.899 408.323 370.799C408.135 363.214 408.265 355.63 408.258 348.038C408.258 347.207 408.178 346.369 408.12 345.091V345.105Z" fill="#E7EBEC"/>
<path d="M534.323 384.408H525.684C524.738 382.812 524.528 321.275 525.489 318.876H534.316V384.408H534.323Z" fill="#E7EBEC"/>
<path d="M510.001 384.387H501.239C501.131 383.361 500.972 382.545 500.972 381.728C500.957 369.232 500.957 356.728 500.972 344.231C500.972 341.298 501.073 341.212 503.854 340.511C505.739 340.041 507.61 339.521 509.799 338.943C510.008 339.947 510.283 340.663 510.283 341.378C510.305 354.987 510.305 368.603 510.283 382.212C510.283 382.841 510.124 383.469 509.994 384.379L510.001 384.387Z" fill="#E7EBEC"/>
<path d="M510.203 322.062C510.203 323.781 510.253 325.305 510.167 326.83C510.145 327.198 509.748 327.761 509.415 327.87C506.779 328.686 504.12 329.416 501.166 330.261V322.062H510.203Z" fill="#E7EBEC"/>
</g>
</g>
<defs>
<clipPath id="clip0_22_22547">
<rect y="0.0297852" width="1160" height="470" rx="6" fill="white"/>
</clipPath>
<clipPath id="clip1_22_22547">
<rect width="502.376" height="84.0098" fill="white" transform="translate(290 317.808)"/>
</clipPath>
</defs>
</svg>
