<svg width="100" height="36" viewBox="0 0 100 36" fill="none" xmlns="http://www.w3.org/2000/svg">
<g id="Layer_1" clip-path="url(#clip0_1_31842)">
<path id="Vector" d="M39.3946 17.5939C39.3946 20.5361 41.2967 22.1872 43.5008 22.1872C44.3301 22.2114 45.1437 21.9586 45.8115 21.4689C46.4794 20.9793 46.9631 20.2812 47.1854 19.486L50.2659 20.5955C49.5721 22.8773 47.368 25.3704 43.5008 25.3704C39.1855 25.3704 35.8926 22.0386 35.8926 17.5939C35.8926 13.0865 39.1855 9.84375 43.4112 9.84375C47.368 9.84375 49.5389 12.3071 50.1431 14.6484L47.0028 15.7909C46.6709 14.4998 45.6751 13.0567 43.4411 13.0567C41.2967 13.0567 39.3946 14.6484 39.3946 17.5939Z" fill="#004FFF"/>
<path id="Vector_2" d="M52.982 2.88965C53.2832 2.88965 53.5815 2.94867 53.8598 3.06334C54.1381 3.17801 54.3909 3.34608 54.6039 3.55796C54.8169 3.76984 54.9859 4.0214 55.1012 4.29824C55.2164 4.57508 55.2758 4.87177 55.2758 5.17142C55.2731 5.61897 55.1375 6.05574 54.8859 6.42678C54.6343 6.79781 54.278 7.08654 53.8619 7.25661C53.4457 7.42667 52.9883 7.47047 52.5472 7.38251C52.106 7.29456 51.7009 7.07878 51.3828 6.76231C51.0646 6.44585 50.8477 6.04283 50.7593 5.604C50.6709 5.16518 50.7149 4.71015 50.8859 4.29616C51.0569 3.88218 51.3471 3.52774 51.7201 3.27747C52.093 3.02719 52.5321 2.89226 52.982 2.88965ZM51.2625 24.9348V10.3063H54.7347V24.9348H51.2625Z" fill="#004FFF"/>
<path id="Vector_3" d="M65.7505 13.747C65.3716 13.6889 64.9888 13.6591 64.6053 13.6578C61.8867 13.6578 60.6485 15.2197 60.6485 17.9506V24.9182H57.1465V10.2896H60.5589V12.6342C61.2527 11.0425 62.8825 10.1113 64.8178 10.1113C65.1308 10.112 65.4431 10.1419 65.7505 10.2005V13.747Z" fill="#004FFF"/>
<path id="Vector_4" d="M68.7716 17.5939C68.7716 20.5361 70.6736 22.1872 72.8778 22.1872C73.7068 22.2103 74.5198 21.957 75.1874 21.4675C75.8551 20.9781 76.3391 20.2806 76.5624 19.486L79.6395 20.5955C78.9457 22.8773 76.7416 25.3704 72.8778 25.3704C68.5624 25.3704 65.2695 22.0386 65.2695 17.5939C65.2695 13.0865 68.5591 9.84375 72.7881 9.84375C76.7416 9.84375 78.9159 12.3071 79.52 14.6484L76.3798 15.7909C76.0478 14.4998 75.052 13.0567 72.818 13.0567C70.667 13.0567 68.7716 14.6484 68.7716 17.5939Z" fill="#004FFF"/>
<path id="Vector_5" d="M80.625 24.9214V3.17676H84.127V24.9214H80.625Z" fill="#004FFF"/>
<path id="Vector_6" d="M99.5657 20.7474C98.7823 23.3 96.4554 25.3704 92.9268 25.3704C88.9434 25.3704 85.4082 22.4877 85.4082 17.5312C85.4082 12.9082 88.8505 9.84375 92.565 9.84375C97.0927 9.84375 99.7516 12.8157 99.7516 17.4387C99.7613 17.8119 99.7301 18.185 99.6587 18.5515H88.9235C88.9496 19.5842 89.3845 20.5648 90.1335 21.2803C90.8825 21.9957 91.8852 22.3881 92.9235 22.3721C95.038 22.3721 96.1235 21.2593 96.6081 19.8195L99.5657 20.7474ZM96.2263 16.0023C96.1666 14.2884 95.0214 12.7562 92.6048 12.7562C91.7024 12.7377 90.8271 13.0638 90.159 13.6676C89.491 14.2714 89.0809 15.1069 89.0132 16.0023H96.2263Z" fill="#004FFF"/>
<path id="Vector_7" d="M32.8239 28.2632C32.8223 28.314 32.8122 28.3642 32.794 28.4118L32.6347 28.6297C30.9496 30.9094 28.7503 32.7638 26.2136 34.0439C23.6768 35.324 20.8735 35.9941 18.029 36.0001C15.5704 36.0082 13.1365 35.5125 10.8789 34.5439C13.4883 32.6369 15.6099 30.1459 17.0722 27.2721C18.5346 24.3984 19.2965 21.2227 19.2965 18.0018C19.2965 14.7808 18.5346 11.6051 17.0722 8.73137C15.6099 5.85765 13.4883 3.36659 10.8789 1.45965C13.1365 0.494212 15.5684 -0.00244491 18.0257 0.000109829C20.8252 -0.00965108 23.5884 0.631334 26.0948 1.87198C28.6012 3.11262 30.7815 4.91861 32.4621 7.14596L32.8305 7.6776H32.8505C32.8521 7.69738 32.8521 7.71726 32.8505 7.73704C32.8506 7.79916 32.8377 7.86063 32.8125 7.9175C32.7874 7.97437 32.7505 8.02537 32.7044 8.06725C32.4831 8.12008 32.2673 8.17952 32.0571 8.24556C29.5853 9.0127 27.4969 10.682 26.2115 12.9181C24.8678 15.2791 24.5102 18.0706 25.2157 20.6913C25.6721 22.4066 26.5753 23.9718 27.8342 25.2288C29.0931 26.4858 30.6631 27.3901 32.3857 27.8504L32.5982 27.9066C32.6657 27.9389 32.7227 27.9894 32.7627 28.0525C32.8026 28.1156 32.8238 28.1886 32.8239 28.2632Z" fill="#004FFF"/>
<path id="Vector_8" d="M15.7007 17.9999C15.7025 20.7989 15.0029 23.5542 13.6652 26.0167C12.3275 28.4791 10.394 30.5711 8.03939 32.1034C7.84597 32.2289 7.61728 32.2895 7.38674 32.2764C7.15621 32.2633 6.93592 32.1773 6.75808 32.0308C4.64689 30.344 2.94317 28.2074 1.77252 25.7785C0.601869 23.3496 -0.00585937 20.6903 -0.00585938 17.9966C-0.00585937 15.303 0.601869 12.6437 1.77252 10.2147C2.94317 7.78582 4.64689 5.64924 6.75808 3.96251C6.95572 3.80412 7.20138 3.71684 7.45517 3.71485C7.66409 3.71425 7.86851 3.77515 8.04272 3.88987C10.3976 5.42318 12.3311 7.51634 13.6682 9.98002C15.0054 12.4437 15.7039 15.2001 15.7007 17.9999Z" fill="#004FFF"/>
</g>
<defs>
<clipPath id="clip0_1_31842">
<rect width="99.75" height="36" fill="white"/>
</clipPath>
</defs>
</svg>
