<svg width="107" height="40" viewBox="0 0 107 40" fill="none" xmlns="http://www.w3.org/2000/svg">
<g clip-path="url(#clip0_15_7001)">
<path d="M42.2605 19.5488C42.2605 22.8179 44.3008 24.6524 46.6651 24.6524C47.5547 24.6794 48.4274 24.3984 49.1438 23.8544C49.8602 23.3104 50.3791 22.5346 50.6175 21.6511L53.9219 22.8839C53.1777 25.4192 50.8134 28.1894 46.6651 28.1894C42.0362 28.1894 38.5039 24.4873 38.5039 19.5488C38.5039 14.5405 42.0362 10.9375 46.569 10.9375C50.8134 10.9375 53.1421 13.6746 53.7901 16.276L50.4217 17.5455C50.0656 16.1109 48.9974 14.5075 46.601 14.5075C44.3008 14.5075 42.2605 16.276 42.2605 19.5488Z" fill="black"/>
<path d="M56.8333 3.21045C57.1564 3.21045 57.4764 3.27603 57.7749 3.40344C58.0734 3.53085 58.3446 3.71759 58.5731 3.95302C58.8016 4.18844 58.9828 4.46795 59.1065 4.77555C59.2301 5.08315 59.2938 5.41281 59.2938 5.74575C59.291 6.24303 59.1455 6.72833 58.8756 7.14059C58.6057 7.55285 58.2235 7.87367 57.7771 8.06263C57.3307 8.25159 56.84 8.30025 56.3669 8.20252C55.8937 8.1048 55.4591 7.86504 55.1178 7.51341C54.7766 7.16178 54.5439 6.71398 54.4491 6.2264C54.3542 5.73881 54.4015 5.23323 54.5849 4.77324C54.7682 4.31326 55.0796 3.91944 55.4796 3.64136C55.8797 3.36327 56.3507 3.21335 56.8333 3.21045ZM54.9889 27.705V11.4511H58.7134V27.705H54.9889Z" fill="black"/>
<path d="M70.5312 15.274C70.1247 15.2095 69.714 15.1764 69.3027 15.1749C66.3865 15.1749 65.0583 16.9104 65.0583 19.9447V27.6864H61.3018V11.4325H64.9622V14.0375C65.7064 12.2691 67.4547 11.2344 69.5306 11.2344C69.8664 11.2352 70.2014 11.2683 70.5312 11.3334V15.274Z" fill="black"/>
<path d="M73.7722 19.5488C73.7722 22.8179 75.8125 24.6524 78.1768 24.6524C79.0661 24.6781 79.9382 24.3966 80.6544 23.8528C81.3706 23.309 81.8897 22.534 82.1292 21.6511L85.43 22.8839C84.6858 25.4192 82.3215 28.1894 78.1768 28.1894C73.5479 28.1894 70.0156 24.4873 70.0156 19.5488C70.0156 14.5405 73.5443 10.9375 78.0807 10.9375C82.3215 10.9375 84.6538 13.6746 85.3019 16.276L81.9334 17.5455C81.5773 16.1109 80.5091 14.5075 78.1127 14.5075C75.8054 14.5075 73.7722 16.276 73.7722 19.5488Z" fill="black"/>
<path d="M86.4863 27.6905V3.52979H90.2429V27.6905H86.4863Z" fill="black"/>
<path d="M106.805 23.0527C105.964 25.8889 103.468 28.1894 99.6832 28.1894C95.4103 28.1894 91.6182 24.9863 91.6182 19.4791C91.6182 14.3424 95.3106 10.9375 99.2951 10.9375C104.152 10.9375 107.004 14.2396 107.004 19.3763C107.014 19.791 106.981 20.2056 106.904 20.6128H95.389C95.417 21.7602 95.8834 22.8498 96.6869 23.6447C97.4904 24.4397 98.5659 24.8757 99.6797 24.8579C101.948 24.8579 103.112 23.6214 103.632 22.0217L106.805 23.0527ZM103.223 17.7803C103.158 15.8761 101.93 14.1736 99.3378 14.1736C98.3698 14.153 97.4309 14.5153 96.7143 15.1862C95.9977 15.8571 95.5578 16.7854 95.4851 17.7803H103.223Z" fill="black"/>
<path d="M35.2119 31.4035C35.2101 31.46 35.1993 31.5158 35.1798 31.5686L35.0089 31.8108C33.2014 34.3438 30.8422 36.4043 28.1211 37.8266C25.4 39.2489 22.3929 39.9934 19.3417 40.0001C16.7044 40.0091 14.0936 39.4583 11.6719 38.3821C14.4709 36.2632 16.7467 33.4954 18.3154 30.3024C19.884 27.1094 20.7013 23.5808 20.7013 20.002C20.7013 16.4231 19.884 12.8945 18.3154 9.70152C16.7467 6.50849 14.4709 3.74066 11.6719 1.62184C14.0935 0.549125 16.7022 -0.00271657 19.3381 0.000122032C22.3411 -0.0107234 25.3051 0.701482 27.9936 2.07997C30.6822 3.45847 33.0211 5.46513 34.8238 7.93995L35.219 8.53067H35.2404C35.2421 8.55264 35.2421 8.57473 35.2404 8.59671C35.2405 8.66574 35.2266 8.73404 35.1996 8.79722C35.1727 8.86041 35.1332 8.91708 35.0837 8.96361C34.8463 9.02232 34.6149 9.08835 34.3893 9.16173C31.7378 10.0141 29.4976 11.8689 28.1189 14.3534C26.6775 16.9767 26.2939 20.0784 27.0507 22.9904C27.5402 24.8963 28.5091 26.6353 29.8595 28.032C31.2099 29.4286 32.8941 30.4334 34.7419 30.9449L34.9697 31.0073C35.0422 31.0432 35.1033 31.0994 35.1462 31.1695C35.189 31.2396 35.2118 31.3207 35.2119 31.4035Z" fill="#70AE6E"/>
<path d="M16.8423 20.0003C16.8442 23.1103 16.0937 26.1717 14.6588 28.9077C13.2239 31.6438 11.1499 33.9682 8.62413 35.6708C8.41665 35.8102 8.17134 35.8775 7.92405 35.863C7.67676 35.8485 7.44046 35.7528 7.2497 35.5901C4.98506 33.7159 3.15751 31.3419 1.90177 28.6431C0.64604 25.9443 -0.00585937 22.9895 -0.00585938 19.9966C-0.00585937 17.0036 0.64604 14.0488 1.90177 11.35C3.15751 8.65124 4.98506 6.27726 7.2497 4.40311C7.4617 4.22712 7.72522 4.13015 7.99745 4.12793C8.22155 4.12727 8.44083 4.19494 8.6277 4.3224C11.1538 6.02608 13.2278 8.35182 14.6621 11.0892C16.0964 13.8266 16.8457 16.8894 16.8423 20.0003Z" fill="#004FFF"/>
</g>
<defs>
<clipPath id="clip0_15_7001">
<rect width="107" height="40" fill="white"/>
</clipPath>
</defs>
</svg>
