<svg width="42" height="43" viewBox="0 0 42 43" fill="none" xmlns="http://www.w3.org/2000/svg">
<rect width="41.752" height="42.31" rx="3.03571" fill="#E6EDFF"/>
<path d="M20 21C22.7614 21 25 18.7614 25 16C25 13.2386 22.7614 11 20 11C17.2386 11 15 13.2386 15 16C15 18.7614 17.2386 21 20 21Z" fill="#004FFF"/>
<path opacity="0.4" d="M20.0002 23.5C14.9902 23.5 10.9102 26.86 10.9102 31C10.9102 31.28 11.1302 31.5 11.4102 31.5H28.5902C28.8702 31.5 29.0902 31.28 29.0902 31C29.0902 26.86 25.0102 23.5 20.0002 23.5Z" fill="#3372FF"/>
<path d="M29.4291 23.7403C28.5291 22.8403 27.8191 23.1303 27.2091 23.7403L23.669 27.2804C23.529 27.4204 23.3991 27.6803 23.3691 27.8703L23.1791 29.2203C23.1091 29.7103 23.4491 30.0503 23.9391 29.9803L25.289 29.7903C25.479 29.7603 25.7491 29.6303 25.8791 29.4903L29.419 25.9503C30.039 25.3503 30.3291 24.6403 29.4291 23.7403Z" fill="#004FFF"/>
</svg>
