<svg width="41" height="40" viewBox="0 0 41 40" fill="none" xmlns="http://www.w3.org/2000/svg">
<rect width="41" height="40" rx="3.03571" fill="#E6EDFF"/>
<path d="M24.1505 10H16.8495C13.0813 10 10 12.9159 10 16.5234V23.4766C10 27.0654 13.0813 30 16.8495 30H24.1505C27.9187 30 31 27.0841 31 23.4766V16.5234C31 12.9346 27.9187 10 24.1505 10ZM28.2523 16.5234V18.6916H21.8738V12.6168H24.1505C26.4075 12.6168 28.2523 14.3738 28.2523 16.5234ZM16.8495 12.6168H19.1262V18.7103H12.7477V16.5421C12.7477 14.3738 14.5925 12.6168 16.8495 12.6168ZM12.7477 23.4766V21.3084H19.1458V27.4019H16.8692C14.5925 27.3832 12.7477 25.6262 12.7477 23.4766ZM24.1505 27.3832H21.8738V21.3084H28.272V23.4766C28.2523 25.6262 26.4075 27.3832 24.1505 27.3832Z" fill="#004FFF"/>
</svg>
