<svg width="44" height="43" viewBox="0 0 44 43" fill="none" xmlns="http://www.w3.org/2000/svg">
<rect width="43.0361" height="42.2431" rx="3.03571" fill="#E6EDFF"/>
<path d="M32.654 15.5047C31.9168 13.0912 29.8318 11.0782 27.3322 10.3664C25.4315 9.83252 24.1183 9.87701 23.2083 10.5332C22.114 11.3229 21.9873 12.7465 21.9873 13.7585V16.5279C21.9873 19.2639 23.2774 20.6541 25.8116 20.6541H29.1176C30.1543 20.6541 31.6403 20.5318 32.4582 19.4752C33.1608 18.6077 33.2184 17.3398 32.654 15.5047Z" fill="#004FFF"/>
<path opacity="0.4" d="M29.4758 22.6338C29.1763 22.3002 28.7386 22.1111 28.2894 22.1111H24.1655C22.1382 22.1111 20.491 20.5207 20.491 18.5632V14.5816C20.491 14.1478 20.2951 13.7252 19.9496 13.436C19.6155 13.1469 19.1547 13.0134 18.717 13.069C16.01 13.4027 13.5219 14.8374 11.8977 16.995C10.262 19.1638 9.66302 21.8108 10.1814 24.4578C10.9301 28.2837 14.0979 31.3423 18.0719 32.0652C18.7055 32.1875 19.339 32.2431 19.9726 32.2431C22.0575 32.2431 24.0734 31.6203 25.7897 30.408C28.0244 28.8398 29.5104 26.4375 29.856 23.8239C29.9136 23.3901 29.7753 22.9564 29.4758 22.6338Z" fill="#3372FF"/>
</svg>
