<svg width="43" height="43" viewBox="0 0 43 43" fill="none" xmlns="http://www.w3.org/2000/svg">
<rect width="43" height="43" rx="3.03571" fill="#E6EDFF"/>
<path opacity="0.4" d="M19 11C16.38 11 14.25 13.13 14.25 15.75C14.25 18.32 16.26 20.4 18.88 20.49C18.96 20.48 19.04 20.48 19.1 20.49C19.12 20.49 19.13 20.49 19.15 20.49C19.16 20.49 19.16 20.49 19.17 20.49C21.73 20.4 23.74 18.32 23.75 15.75C23.75 13.13 21.62 11 19 11Z" fill="#3372FF"/>
<path d="M24.0809 23.1499C21.2909 21.2899 16.7409 21.2899 13.9309 23.1499C12.6609 23.9999 11.9609 25.1499 11.9609 26.3799C11.9609 27.6099 12.6609 28.7499 13.9209 29.5899C15.3209 30.5299 17.1609 30.9999 19.0009 30.9999C20.8409 30.9999 22.6809 30.5299 24.0809 29.5899C25.3409 28.7399 26.0409 27.5999 26.0409 26.3599C26.0309 25.1299 25.3409 23.9899 24.0809 23.1499Z" fill="#004FFF"/>
<path opacity="0.4" d="M29.9894 16.3401C30.1494 18.2801 28.7694 19.9801 26.8594 20.2101C26.8494 20.2101 26.8494 20.2101 26.8394 20.2101H26.8094C26.7494 20.2101 26.6894 20.2101 26.6394 20.2301C25.6694 20.2801 24.7794 19.9701 24.1094 19.4001C25.1394 18.4801 25.7294 17.1001 25.6094 15.6001C25.5394 14.7901 25.2594 14.0501 24.8394 13.4201C25.2194 13.2301 25.6594 13.1101 26.1094 13.0701C28.0694 12.9001 29.8194 14.3601 29.9894 16.3401Z" fill="#3372FF"/>
<path d="M31.9902 25.5899C31.9102 26.5599 31.2902 27.3999 30.2502 27.9699C29.2502 28.5199 27.9902 28.7799 26.7402 28.7499C27.4602 28.0999 27.8802 27.2899 27.9602 26.4299C28.0602 25.1899 27.4702 23.9999 26.2902 23.0499C25.6202 22.5199 24.8402 22.0999 23.9902 21.7899C26.2002 21.1499 28.9802 21.5799 30.6902 22.9599C31.6102 23.6999 32.0802 24.6299 31.9902 25.5899Z" fill="#004FFF"/>
</svg>
