<svg width="43" height="44" viewBox="0 0 43 44" fill="none" xmlns="http://www.w3.org/2000/svg">
<rect y="0.243164" width="43" height="43" rx="3.03571" fill="#E6EDFF"/>
<path opacity="0.4" d="M27.5349 17.0132C27.4649 17.0032 27.3949 17.0032 27.3249 17.0132C25.7749 16.9632 24.5449 15.6932 24.5449 14.1332C24.5449 12.5432 25.8349 11.2432 27.4349 11.2432C29.0249 11.2432 30.3249 12.5332 30.3249 14.1332C30.3149 15.6932 29.0849 16.9632 27.5349 17.0132Z" fill="#3372FF"/>
<path opacity="0.4" d="M30.7955 23.9431C29.6755 24.6931 28.1055 24.9731 26.6555 24.7831C27.0355 23.9631 27.2355 23.0531 27.2455 22.0931C27.2455 21.0931 27.0255 20.1431 26.6055 19.3131C28.0855 19.1131 29.6555 19.3931 30.7855 20.1431C32.3655 21.1831 32.3655 22.8931 30.7955 23.9431Z" fill="#3372FF"/>
<path opacity="0.4" d="M16.4462 17.0132C16.5162 17.0032 16.5863 17.0032 16.6562 17.0132C18.2063 16.9632 19.4362 15.6932 19.4362 14.1332C19.4362 12.5432 18.1462 11.2432 16.5462 11.2432C14.9562 11.2432 13.6562 12.5332 13.6562 14.1332C13.6662 15.6932 14.8962 16.9632 16.4462 17.0132Z" fill="#3372FF"/>
<path opacity="0.4" d="M16.555 22.0933C16.555 23.0633 16.765 23.9833 17.145 24.8133C15.735 24.9633 14.265 24.6633 13.185 23.9533C11.605 22.9033 11.605 21.1933 13.185 20.1433C14.255 19.4233 15.765 19.1333 17.185 19.2933C16.775 20.1333 16.555 21.0833 16.555 22.0933Z" fill="#3372FF"/>
<path d="M22.1266 25.1132C22.0466 25.1032 21.9566 25.1032 21.8666 25.1132C20.0266 25.0532 18.5566 23.5432 18.5566 21.6832C18.5566 19.7832 20.0866 18.2432 21.9966 18.2432C23.8966 18.2432 25.4366 19.7832 25.4366 21.6832C25.4366 23.5432 23.9766 25.0532 22.1266 25.1132Z" fill="#004FFF"/>
<path d="M18.8766 27.1831C17.3666 28.1931 17.3666 29.8531 18.8766 30.8531C20.5966 32.0031 23.4166 32.0031 25.1366 30.8531C26.6466 29.8431 26.6466 28.1831 25.1366 27.1831C23.4266 26.0331 20.6066 26.0331 18.8766 27.1831Z" fill="#004FFF"/>
</svg>
