<svg width="43" height="43" viewBox="0 0 43 43" fill="none" xmlns="http://www.w3.org/2000/svg">
<rect width="43" height="43" rx="3.03571" fill="#E6EDFF"/>
<path d="M14 32C13.4533 32 13 31.4286 13 30.7395V27.2605C13 26.5714 13.4533 26 14 26C14.5467 26 15 26.5714 15 27.2605V30.7395C15 31.4454 14.5467 32 14 32Z" fill="#004FFF"/>
<path d="M22 32C21.4533 32 21 31.4584 21 30.8053V24.1947C21 23.5416 21.4533 23 22 23C22.5467 23 23 23.5416 23 24.1947V30.8053C23 31.4743 22.5467 32 22 32Z" fill="#004FFF"/>
<path d="M30 32C29.4533 32 29 31.4715 29 30.8342V21.1658C29 20.5285 29.4533 20 30 20C30.5467 20 31 20.5285 31 21.1658V30.8342C31 31.487 30.56 32 30 32Z" fill="#004FFF"/>
<path d="M31 11.157C31 11.0766 30.9693 10.9802 30.954 10.8999C30.9387 10.8356 30.9234 10.7553 30.908 10.691C30.8774 10.6267 30.8314 10.5785 30.8007 10.5142C30.7547 10.4499 30.7087 10.3696 30.6474 10.3214C30.6321 10.3053 30.6321 10.2892 30.6168 10.2892C30.5708 10.2571 30.5248 10.241 30.4788 10.2089C30.4175 10.1607 30.3408 10.1125 30.2642 10.0803C30.1875 10.0482 30.1109 10.0482 30.0342 10.0321C29.9729 10.0161 29.9269 10 29.8656 10H25.3741C24.7456 10 24.2244 10.5464 24.2244 11.2052C24.2244 11.864 24.7456 12.4104 25.3741 12.4104H27.2903C23.6418 16.4277 19.043 19.2559 13.8769 20.6218C13.2637 20.7824 12.8805 21.4413 13.0338 22.0841C13.1564 22.6304 13.6317 23 14.1529 23C14.2448 23 14.3368 22.9839 14.4288 22.9679C19.9014 21.5377 24.7915 18.5649 28.7006 14.3548V15.9135C28.7006 16.5723 29.2218 17.1187 29.8503 17.1187C30.4788 17.1187 31 16.5723 31 15.9135V11.2052C31 11.1891 31 11.1731 31 11.157Z" fill="#004FFF"/>
</svg>
