<svg width="43" height="43" viewBox="0 0 43 43" fill="none" xmlns="http://www.w3.org/2000/svg">
<rect width="43" height="43" rx="3.03571" fill="#E6EDFF"/>
<path opacity="0.4" d="M31 11V23.1C31 25 30 26 28.1 26H15.9C14 26 13 25 13 23.1V11H31Z" fill="#3372FF"/>
<path d="M32 11.75H12C11.59 11.75 11.25 11.41 11.25 11C11.25 10.59 11.59 10.25 12 10.25H32C32.41 10.25 32.75 10.59 32.75 11C32.75 11.41 32.41 11.75 32 11.75Z" fill="#004FFF"/>
<path d="M26.6703 31.34C26.5403 31.6 26.2703 31.75 26.0003 31.75C25.8903 31.75 25.7703 31.72 25.6703 31.67L22.0003 29.84L18.3303 31.67C18.2303 31.72 18.1103 31.75 18.0003 31.75C17.7303 31.75 17.4603 31.6 17.3303 31.34C17.1403 30.96 17.2903 30.51 17.6703 30.33L21.2503 28.54V26H22.7503V28.54L26.3303 30.33C26.7103 30.51 26.8603 30.96 26.6703 31.34Z" fill="#004FFF"/>
<path d="M17.5009 20.7499C17.2909 20.7499 17.0709 20.6599 16.9209 20.4799C16.6509 20.1599 16.7009 19.6899 17.0209 19.4199L20.1709 16.7899C20.4609 16.5499 20.8309 16.4499 21.1809 16.5099C21.5409 16.5699 21.8509 16.7899 22.0409 17.1099L23.0909 18.8599L26.0209 16.4199C26.3409 16.1499 26.8109 16.1999 27.0809 16.5199C27.3509 16.8399 27.3009 17.3099 26.9809 17.5799L23.8309 20.2099C23.5409 20.4499 23.1709 20.5499 22.8209 20.4899C22.4609 20.4299 22.1509 20.2099 21.9609 19.8899L20.9109 18.1399L17.9809 20.5799C17.8409 20.6899 17.6709 20.7499 17.5009 20.7499Z" fill="#004FFF"/>
</svg>
