<svg width="42" height="43" viewBox="0 0 42 43" fill="none" xmlns="http://www.w3.org/2000/svg">
<rect y="0.243164" width="41.752" height="42.31" rx="3.03571" fill="#E6EDFF"/>
<path d="M32.4859 15.9111H24.0437C23.3514 15.9111 22.7773 15.337 22.7773 14.6447C22.7773 13.9525 23.3514 13.3784 24.0437 13.3784H32.4859C33.1781 13.3784 33.7522 13.9525 33.7522 14.6447C33.7522 15.337 33.1781 15.9111 32.4859 15.9111Z" fill="#004FFF"/>
<path d="M32.4854 22.6647H25.7317C25.0394 22.6647 24.4653 22.0907 24.4653 21.3984C24.4653 20.7061 25.0394 20.1321 25.7317 20.1321H32.4854C33.1777 20.1321 33.7517 20.7061 33.7517 21.3984C33.7517 22.0907 33.1777 22.6647 32.4854 22.6647Z" fill="#9EBCFF"/>
<path d="M32.4855 29.4184H29.1086C28.4164 29.4184 27.8423 28.8443 27.8423 28.1521C27.8423 27.4598 28.4164 26.8857 29.1086 26.8857H32.4855C33.1777 26.8857 33.7518 27.4598 33.7518 28.1521C33.7518 28.8443 33.1777 29.4184 32.4855 29.4184Z" fill="#004FFF"/>
<path d="M14.7562 21.0437C16.9103 21.0437 18.6565 19.2975 18.6565 17.1435C18.6565 14.9894 16.9103 13.2432 14.7562 13.2432C12.6022 13.2432 10.856 14.9894 10.856 17.1435C10.856 19.2975 12.6022 21.0437 14.7562 21.0437Z" fill="#407BFF"/>
<path d="M16.107 23.2723C15.2121 23.1879 14.2835 23.1879 13.3886 23.2723C10.5521 23.5425 8.27267 25.7881 8.00252 28.6246C7.98563 28.861 8.05317 29.0974 8.22201 29.2663C8.39086 29.4351 8.61035 29.5533 8.84673 29.5533H20.6658C20.9022 29.5533 21.1386 29.452 21.2905 29.2831C21.4425 29.1143 21.5269 28.8779 21.51 28.6415C21.223 25.7881 18.9605 23.5425 16.107 23.2723Z" fill="#9EBCFF"/>
</svg>
