<svg width="43" height="44" viewBox="0 0 43 44" fill="none" xmlns="http://www.w3.org/2000/svg">
<rect y="0.243164" width="43" height="43" rx="3.03571" fill="#E6EDFF"/>
<path d="M19.75 13.2432V31.2432H24.25V13.2432C24.25 12.1432 23.8 11.2432 22.45 11.2432H21.55C20.2 11.2432 19.75 12.1432 19.75 13.2432Z" fill="#004FFF"/>
<path opacity="0.4" d="M13 19.2432V31.2432H17V19.2432C17 18.1432 16.6 17.2432 15.4 17.2432H14.6C13.4 17.2432 13 18.1432 13 19.2432Z" fill="#3372FF"/>
<path opacity="0.4" d="M27 24.2432V31.2432H31V24.2432C31 23.1432 30.6 22.2432 29.4 22.2432H28.6C27.4 22.2432 27 23.1432 27 24.2432Z" fill="#3372FF"/>
<path d="M32 31.2432H12C11.59 31.2432 11.25 30.9032 11.25 30.4932C11.25 30.0832 11.59 29.7432 12 29.7432H32C32.41 29.7432 32.75 30.0832 32.75 30.4932C32.75 30.9032 32.41 31.2432 32 31.2432Z" fill="#004FFF"/>
</svg>
